<svg xmlns="http://www.w3.org/2000/svg" viewBox="0 0 420 80" width="420" height="80">
  <!-- Dark background pill -->
  <rect x="0" y="0" width="420" height="80" rx="8" fill="#1C2D4F"/>

  <!-- Mark: white shield -->
  <path d="M16 10 L16 50 Q16 66 32 70 L46 74 L60 70 Q76 66 76 50 L76 10 Z"
        fill="#FFFFFF" opacity="0.08"/>
  <path d="M16 10 L16 28 L46 12 L76 28 L76 10 Z"
        fill="#2A9D8F" opacity="0.85"/>
  <path d="M16 10 L16 50 Q16 66 32 70 L46 74 L60 70 Q76 66 76 50 L76 10 Z"
        fill="none" stroke="#2A9D8F" stroke-width="1.5" opacity="0.4"/>

  <!-- Scale -->
  <line x1="28" y1="38" x2="64" y2="38" stroke="#FFFFFF" stroke-width="1.8" stroke-linecap="round"/>
  <line x1="46" y1="22" x2="46" y2="57" stroke="#FFFFFF" stroke-width="1.8" stroke-linecap="round"/>
  <circle cx="46" cy="22" r="2.8" fill="#E9C46A"/>

  <line x1="28" y1="38" x2="28" y2="47" stroke="rgba(255,255,255,0.6)" stroke-width="1.3"/>
  <path d="M21 47 Q28 44 35 47" stroke="rgba(255,255,255,0.6)" stroke-width="1.5" fill="none" stroke-linecap="round"/>
  <line x1="64" y1="38" x2="64" y2="47" stroke="rgba(255,255,255,0.6)" stroke-width="1.3"/>
  <path d="M57 47 Q64 44 71 47" stroke="rgba(255,255,255,0.6)" stroke-width="1.5" fill="none" stroke-linecap="round"/>

  <circle cx="34" cy="38" r="2" fill="#2A9D8F"/>
  <circle cx="40" cy="38" r="1.4" fill="#2A9D8F" opacity="0.6"/>
  <circle cx="52" cy="38" r="1.4" fill="#2A9D8F" opacity="0.6"/>
  <circle cx="58" cy="38" r="2" fill="#2A9D8F"/>

  <rect x="25" y="49" width="3.5" height="3.5" rx="0.5" fill="#E9C46A"/>
  <rect x="29.5" y="49" width="3.5" height="3.5" rx="0.5" fill="#2A9D8F"/>
  <rect x="61" y="49" width="3.5" height="3.5" rx="0.5" fill="#2A9D8F"/>
  <rect x="65.5" y="49" width="3.5" height="3.5" rx="0.5" fill="#E9C46A"/>

  <!-- Wordmark white -->
  <text x="90" y="43"
        font-family="Georgia, 'Times New Roman', serif"
        font-size="28" font-weight="700"
        fill="#FFFFFF" letter-spacing="-0.5">Comply</text>
  <text x="202" y="43"
        font-family="'Trebuchet MS', sans-serif"
        font-size="28" font-weight="400"
        fill="#2A9D8F" letter-spacing="-0.3">Line</text>
  <text x="90" y="58"
        font-family="'Trebuchet MS', sans-serif"
        font-size="9.5" font-weight="400"
        fill="rgba(214,228,247,0.7)" letter-spacing="1.8">CREDIT CARD COMPLIANCE PLATFORM</text>
</svg>